<svg xmlns="http://www.w3.org/2000/svg" viewBox="0 0 236 400" fill="#fff">
  <path d="M235.25,331.33l0-259.94A5,5,0,0,0,232.7,67L117.77.68a5,5,0,0,0-6.89,1.85,4.94,4.94,0,0,0-.68,2.52V123.54L7.57,64.3A5,5,0,0,0,.68,66.15,4.94,4.94,0,0,0,0,68.67V328.6A5,5,0,0,0,2.52,333l114.92,66.34a5,5,0,0,0,6.89-1.85,5,5,0,0,0,.68-2.52V276.44L227.68,335.7a5,5,0,0,0,6.89-1.85A4.94,4.94,0,0,0,235.25,331.33ZM220.41,85.57l0,101.62-88-50.82ZM213,200l-88,50.8V149.2ZM110.2,250.79l-88-50.8,88-50.79Zm110.23-37.94V314.43l-88-50.8ZM102.79,136.37l-88,50.8V85.57Zm0,127.26-88,50.79V212.82ZM213,72.74l-88,50.81V21.94ZM22.21,327.25l88-50.78V378.05Z"/>
</svg>
